<?xml version="1.0" standalone="no"?><svg xmlns="http://www.w3.org/2000/svg" viewBox="0 0 1440 320"><path fill="#ffffff" fill-opacity="1" d="M0,224L24,224C48,224,96,224,144,197.3C192,171,240,117,288,90.7C336,64,384,64,432,85.3C480,107,528,149,576,154.7C624,160,672,128,720,138.7C768,149,816,203,864,202.7C912,203,960,149,1008,117.3C1056,85,1104,75,1152,101.3C1200,128,1248,192,1296,224C1344,256,1392,256,1416,256L1440,256L1440,320L1416,320C1392,320,1344,320,1296,320C1248,320,1200,320,1152,320C1104,320,1056,320,1008,320C960,320,912,320,864,320C816,320,768,320,720,320C672,320,624,320,576,320C528,320,480,320,432,320C384,320,336,320,288,320C240,320,192,320,144,320C96,320,48,320,24,320L0,320Z"></path></svg>